<svg width="24" height="24" viewBox="0 0 24 24" fill="none" xmlns="http://www.w3.org/2000/svg">
<path d="M16.6346 20.26C16.1645 20.7301 15.4067 20.7301 14.9367 20.26L6.96549 12.2888C6.87657 12.2001 6.80602 12.0947 6.75788 11.9786C6.70975 11.8626 6.68497 11.7382 6.68497 11.6125C6.68497 11.4869 6.70975 11.3625 6.75788 11.2465C6.80602 11.1304 6.87657 11.025 6.96549 10.9363L14.9367 2.96507C15.4067 2.49504 16.1645 2.49504 16.6346 2.96507C17.1046 3.43509 17.1046 4.19288 16.6346 4.66291L9.68971 11.6173L16.6441 18.5718C17.1046 19.0322 17.1046 19.7996 16.6346 20.26Z" fill="#058B94"/>
</svg>
