<svg width="20" height="20" viewBox="0 0 20 20" fill="none" xmlns="http://www.w3.org/2000/svg">
<path d="M9.99984 11.667C10.1647 11.667 10.3258 11.6181 10.4628 11.5266C10.5999 11.435 10.7067 11.3048 10.7697 11.1526C10.8328 11.0003 10.8493 10.8327 10.8172 10.6711C10.785 10.5094 10.7056 10.3609 10.5891 10.2444C10.4725 10.1279 10.3241 10.0485 10.1624 10.0163C10.0008 9.98418 9.83321 10.0007 9.68093 10.0638C9.52866 10.1268 9.39851 10.2336 9.30695 10.3707C9.21538 10.5077 9.1665 10.6688 9.1665 10.8337C9.1665 11.0547 9.2543 11.2666 9.41058 11.4229C9.56686 11.5792 9.77882 11.667 9.99984 11.667ZM14.1665 11.667C14.3313 11.667 14.4924 11.6181 14.6295 11.5266C14.7665 11.435 14.8733 11.3048 14.9364 11.1526C14.9995 11.0003 15.016 10.8327 14.9838 10.6711C14.9517 10.5094 14.8723 10.3609 14.7558 10.2444C14.6392 10.1279 14.4907 10.0485 14.3291 10.0163C14.1674 9.98418 13.9999 10.0007 13.8476 10.0638C13.6953 10.1268 13.5652 10.2336 13.4736 10.3707C13.382 10.5077 13.3332 10.6688 13.3332 10.8337C13.3332 11.0547 13.421 11.2666 13.5772 11.4229C13.7335 11.5792 13.9455 11.667 14.1665 11.667ZM9.99984 15.0003C10.1647 15.0003 10.3258 14.9515 10.4628 14.8599C10.5999 14.7683 10.7067 14.6382 10.7697 14.4859C10.8328 14.3336 10.8493 14.1661 10.8172 14.0044C10.785 13.8428 10.7056 13.6943 10.5891 13.5777C10.4725 13.4612 10.3241 13.3818 10.1624 13.3497C10.0008 13.3175 9.83321 13.334 9.68093 13.3971C9.52866 13.4602 9.39851 13.567 9.30695 13.704C9.21538 13.8411 9.1665 14.0022 9.1665 14.167C9.1665 14.388 9.2543 14.6 9.41058 14.7562C9.56686 14.9125 9.77882 15.0003 9.99984 15.0003ZM14.1665 15.0003C14.3313 15.0003 14.4924 14.9515 14.6295 14.8599C14.7665 14.7683 14.8733 14.6382 14.9364 14.4859C14.9995 14.3336 15.016 14.1661 14.9838 14.0044C14.9517 13.8428 14.8723 13.6943 14.7558 13.5777C14.6392 13.4612 14.4907 13.3818 14.3291 13.3497C14.1674 13.3175 13.9999 13.334 13.8476 13.3971C13.6953 13.4602 13.5652 13.567 13.4736 13.704C13.382 13.8411 13.3332 14.0022 13.3332 14.167C13.3332 14.388 13.421 14.6 13.5772 14.7562C13.7335 14.9125 13.9455 15.0003 14.1665 15.0003ZM5.83317 11.667C5.99799 11.667 6.1591 11.6181 6.29615 11.5266C6.43319 11.435 6.54 11.3048 6.60307 11.1526C6.66614 11.0003 6.68265 10.8327 6.65049 10.6711C6.61834 10.5094 6.53897 10.3609 6.42243 10.2444C6.30588 10.1279 6.1574 10.0485 5.99575 10.0163C5.8341 9.98418 5.66654 10.0007 5.51427 10.0638C5.362 10.1268 5.23185 10.2336 5.14028 10.3707C5.04871 10.5077 4.99984 10.6688 4.99984 10.8337C4.99984 11.0547 5.08763 11.2666 5.24392 11.4229C5.4002 11.5792 5.61216 11.667 5.83317 11.667ZM15.8332 3.33366H14.9998V2.50033C14.9998 2.27931 14.912 2.06735 14.7558 1.91107C14.5995 1.75479 14.3875 1.66699 14.1665 1.66699C13.9455 1.66699 13.7335 1.75479 13.5772 1.91107C13.421 2.06735 13.3332 2.27931 13.3332 2.50033V3.33366H6.6665V2.50033C6.6665 2.27931 6.57871 2.06735 6.42243 1.91107C6.26615 1.75479 6.05418 1.66699 5.83317 1.66699C5.61216 1.66699 5.4002 1.75479 5.24392 1.91107C5.08763 2.06735 4.99984 2.27931 4.99984 2.50033V3.33366H4.1665C3.50346 3.33366 2.86758 3.59705 2.39874 4.06589C1.9299 4.53473 1.6665 5.17062 1.6665 5.83366V15.8337C1.6665 16.4967 1.9299 17.1326 2.39874 17.6014C2.86758 18.0703 3.50346 18.3337 4.1665 18.3337H15.8332C16.4962 18.3337 17.1321 18.0703 17.6009 17.6014C18.0698 17.1326 18.3332 16.4967 18.3332 15.8337V5.83366C18.3332 5.17062 18.0698 4.53473 17.6009 4.06589C17.1321 3.59705 16.4962 3.33366 15.8332 3.33366ZM16.6665 15.8337C16.6665 16.0547 16.5787 16.2666 16.4224 16.4229C16.2661 16.5792 16.0542 16.667 15.8332 16.667H4.1665C3.94549 16.667 3.73353 16.5792 3.57725 16.4229C3.42097 16.2666 3.33317 16.0547 3.33317 15.8337V8.33366H16.6665V15.8337ZM16.6665 6.66699H3.33317V5.83366C3.33317 5.61264 3.42097 5.40068 3.57725 5.2444C3.73353 5.08812 3.94549 5.00033 4.1665 5.00033H15.8332C16.0542 5.00033 16.2661 5.08812 16.4224 5.2444C16.5787 5.40068 16.6665 5.61264 16.6665 5.83366V6.66699ZM5.83317 15.0003C5.99799 15.0003 6.1591 14.9515 6.29615 14.8599C6.43319 14.7683 6.54 14.6382 6.60307 14.4859C6.66614 14.3336 6.68265 14.1661 6.65049 14.0044C6.61834 13.8428 6.53897 13.6943 6.42243 13.5777C6.30588 13.4612 6.1574 13.3818 5.99575 13.3497C5.8341 13.3175 5.66654 13.334 5.51427 13.3971C5.362 13.4602 5.23185 13.567 5.14028 13.704C5.04871 13.8411 4.99984 14.0022 4.99984 14.167C4.99984 14.388 5.08763 14.6 5.24392 14.7562C5.4002 14.9125 5.61216 15.0003 5.83317 15.0003Z" fill="#058B94"/>
</svg>
