<svg width="24" height="24" viewBox="0 0 24 24" fill="none" xmlns="http://www.w3.org/2000/svg">
<path d="M7.36545 20.26C7.83547 20.7301 8.59326 20.7301 9.06329 20.26L17.0345 12.2888C17.1234 12.2001 17.194 12.0947 17.2421 11.9786C17.2903 11.8626 17.315 11.7382 17.315 11.6125C17.315 11.4869 17.2903 11.3625 17.2421 11.2465C17.194 11.1304 17.1234 11.025 17.0345 10.9363L9.06329 2.96507C8.59326 2.49504 7.83547 2.49504 7.36545 2.96507C6.89542 3.43509 6.89542 4.19288 7.36545 4.66291L14.3103 11.6173L7.35585 18.5718C6.89542 19.0322 6.89542 19.7996 7.36545 20.26Z" fill="#058B94"/>
</svg>
