<svg width="50" height="40" viewBox="0 0 50 40" fill="none" xmlns="http://www.w3.org/2000/svg">
<g clip-path="url(#clip0_15303_9891)">
<rect width="50" height="39.8936" rx="4" fill="white"/>
<g clip-path="url(#clip1_15303_9891)">
<path d="M54.9987 41.15C54.9909 42.0289 54.9263 42.9064 54.8053 43.777C54.8011 43.8076 54.7964 43.8382 54.7922 43.8688L46.5335 43.8228C46.5093 43.7924 46.4854 43.7617 46.4623 43.7306C46.3852 43.6277 46.3129 43.5218 46.2466 43.4123C45.9277 42.8849 45.7818 42.2673 45.928 41.8412L45.9307 41.8346C45.9622 41.7413 46.012 41.6552 46.0771 41.5811C46.4106 41.2069 47.0849 41.2693 47.6969 41.5713C47.148 40.9725 46.711 40.2169 46.6777 39.5425C46.6452 38.8846 46.9903 38.4147 47.3647 38.0153C47.377 38.0021 47.3892 37.9893 47.4015 37.9765C47.4075 37.9698 47.4138 37.9636 47.4198 37.957C47.7118 37.6527 48.0523 37.3526 48.5452 37.3889C49.0857 37.4288 49.685 37.88 50.1052 38.4059C50.5255 38.9313 50.8047 39.5282 51.0877 40.1108C51.3711 40.693 51.6777 41.2901 52.1325 41.7877C51.5166 41.0112 51.0199 40.1277 50.8365 39.2685C50.653 38.4093 50.8145 37.584 51.3634 37.1794C51.5301 37.0603 51.7229 36.9828 51.9258 36.9532C51.9495 36.9493 51.9736 36.9461 51.998 36.9433C52.5062 36.8857 53.113 37.0608 53.6292 37.4795C54.1977 37.9406 54.5919 38.624 54.788 39.2728C54.9841 39.9216 55.005 40.5462 54.9987 41.15Z" fill="#F2F2F2"/>
<path d="M51.6317 43.8516L51.5341 43.851C51.512 43.8203 51.4904 43.7896 51.4684 43.7589C50.9509 43.0357 50.4335 42.3124 49.9163 41.5892C49.0692 40.4052 48.2224 39.2212 47.3758 38.0372C47.3708 38.0308 47.3671 38.0235 47.3648 38.0157C47.3576 37.9895 47.3769 37.9742 47.4017 37.9769C47.4121 37.9784 47.4221 37.982 47.431 37.9877C47.4399 37.9933 47.4475 38.0008 47.4533 38.0096C47.9282 38.6736 48.403 39.3373 48.8776 40.0008C49.7203 41.1789 50.5629 42.3569 51.4053 43.5348C51.4589 43.6095 51.5124 43.6847 51.566 43.7594C51.5881 43.7901 51.6101 43.8209 51.6317 43.8516Z" fill="white"/>
<path d="M13.9317 25.6873H5.8435C5.61987 25.687 5.40547 25.5984 5.24734 25.4408C5.0892 25.2832 5.00025 25.0695 5 24.8466V15.1639C5.00025 14.941 5.0892 14.7273 5.24734 14.5697C5.40547 14.4121 5.61987 14.3235 5.8435 14.3232H13.9317C14.1553 14.3235 14.3697 14.4121 14.5279 14.5697C14.686 14.7273 14.7749 14.941 14.7752 15.1639V24.8466C14.7749 25.0695 14.686 25.2832 14.5279 25.4408C14.3697 25.5984 14.1553 25.687 13.9317 25.6873ZM5.8435 14.4305C5.6484 14.4307 5.46136 14.5081 5.32341 14.6456C5.18546 14.7831 5.10786 14.9695 5.10764 15.1639V24.8466C5.10786 25.041 5.18546 25.2275 5.32341 25.3649C5.46136 25.5024 5.6484 25.5798 5.8435 25.58H13.9317C14.1268 25.5798 14.3138 25.5024 14.4518 25.3649C14.5897 25.2275 14.6673 25.041 14.6675 24.8466V15.1639C14.6673 14.9695 14.5897 14.7831 14.4518 14.6456C14.3138 14.5081 14.1268 14.4307 13.9317 14.4305H5.8435Z" fill="#3F3D56"/>
<path d="M11.7783 15.1194H7.99698C7.81861 15.1192 7.64761 15.0485 7.52149 14.9228C7.39536 14.7971 7.32442 14.6266 7.32422 14.4489V14.3053C7.32442 14.1275 7.39536 13.9571 7.52149 13.8314C7.64761 13.7057 7.81861 13.635 7.99698 13.6348H11.7783C11.9567 13.635 12.1277 13.7057 12.2538 13.8314C12.38 13.9571 12.4509 14.1275 12.4511 14.3053V14.4489C12.4509 14.6266 12.38 14.7971 12.2538 14.9228C12.1277 15.0485 11.9567 15.1192 11.7783 15.1194Z" fill="#CCCCCC"/>
<path d="M13.5964 20.3872H6.17825C6.12793 20.3873 6.0781 20.3774 6.03159 20.3583C5.98509 20.3391 5.94282 20.311 5.90722 20.2756C5.87162 20.2402 5.84338 20.1981 5.82411 20.1517C5.80484 20.1054 5.79492 20.0558 5.79492 20.0056C5.79492 19.9555 5.80484 19.9058 5.82411 19.8595C5.84338 19.8132 5.87162 19.7711 5.90722 19.7356C5.94282 19.7002 5.98509 19.6721 6.03159 19.6529C6.0781 19.6338 6.12793 19.624 6.17825 19.624H13.5964C13.6979 19.6241 13.7951 19.6644 13.8669 19.7359C13.9386 19.8075 13.9788 19.9045 13.9788 20.0056C13.9788 20.1067 13.9386 20.2037 13.8669 20.2753C13.7951 20.3468 13.6979 20.3871 13.5964 20.3872Z" fill="#035D63"/>
<path d="M13.5964 22.0093H6.17825C6.12793 22.0093 6.0781 21.9995 6.03159 21.9803C5.98509 21.9612 5.94282 21.9331 5.90722 21.8977C5.87162 21.8622 5.84338 21.8201 5.82411 21.7738C5.80484 21.7275 5.79492 21.6778 5.79492 21.6277C5.79492 21.5775 5.80484 21.5279 5.82411 21.4815C5.84338 21.4352 5.87162 21.3931 5.90722 21.3577C5.94282 21.3223 5.98509 21.2942 6.03159 21.275C6.0781 21.2559 6.12793 21.246 6.17825 21.2461H13.5964C13.6979 21.2462 13.7951 21.2865 13.8669 21.358C13.9386 21.4296 13.9788 21.5266 13.9788 21.6277C13.9788 21.7288 13.9386 21.8258 13.8669 21.8973C13.7951 21.9689 13.6979 22.0091 13.5964 22.0093Z" fill="#035D63"/>
<path d="M11.6104 18.7651H8.16458C8.11426 18.7652 8.06442 18.7554 8.01792 18.7362C7.97141 18.7171 7.92915 18.689 7.89355 18.6535C7.85795 18.6181 7.82971 18.576 7.81044 18.5297C7.79117 18.4833 7.78125 18.4337 7.78125 18.3835C7.78125 18.3334 7.79117 18.2837 7.81044 18.2374C7.82971 18.1911 7.85795 18.149 7.89355 18.1136C7.92915 18.0781 7.97141 18.05 8.01792 18.0309C8.06442 18.0117 8.11426 18.0019 8.16458 18.002H11.6104C11.6608 18.0019 11.7106 18.0117 11.7571 18.0309C11.8036 18.05 11.8459 18.0781 11.8815 18.1136C11.9171 18.149 11.9453 18.1911 11.9646 18.2374C11.9838 18.2837 11.9938 18.3334 11.9938 18.3835C11.9938 18.4337 11.9838 18.4833 11.9646 18.5297C11.9453 18.576 11.9171 18.6181 11.8815 18.6535C11.8459 18.689 11.8036 18.7171 11.7571 18.7362C11.7106 18.7554 11.6608 18.7652 11.6104 18.7651Z" fill="#035D63"/>
<path d="M31.1133 16.0525H23.0251C22.8015 16.0523 22.5871 15.9636 22.429 15.806C22.2708 15.6484 22.1819 15.4347 22.1816 15.2119V5.52913C22.1819 5.30626 22.2708 5.09258 22.429 4.93498C22.5871 4.77738 22.8015 4.68873 23.0251 4.68848H31.1133C31.337 4.68873 31.5514 4.77738 31.7095 4.93498C31.8676 5.09258 31.9566 5.30626 31.9568 5.52913V15.2119C31.9566 15.4347 31.8676 15.6484 31.7095 15.806C31.5514 15.9636 31.337 16.0523 31.1133 16.0525ZM23.0251 4.79576C22.83 4.79597 22.643 4.87331 22.5051 5.0108C22.3671 5.14829 22.2895 5.3347 22.2893 5.52913V15.2119C22.2895 15.4063 22.3671 15.5927 22.5051 15.7302C22.643 15.8677 22.83 15.945 23.0251 15.9452H31.1133C31.3084 15.945 31.4955 15.8677 31.6334 15.7302C31.7714 15.5927 31.849 15.4063 31.8492 15.2119V5.52913C31.849 5.3347 31.7714 5.14829 31.6334 5.0108C31.4955 4.87331 31.3084 4.79597 31.1133 4.79576H23.0251Z" fill="#3F3D56"/>
<path d="M28.96 5.48459H25.1786C25.0003 5.48439 24.8292 5.41369 24.7031 5.28799C24.577 5.16229 24.5061 4.99186 24.5059 4.8141V4.67049C24.5061 4.49273 24.577 4.3223 24.7031 4.1966C24.8292 4.07091 25.0003 4.0002 25.1786 4H28.96C29.1383 4.0002 29.3093 4.07091 29.4355 4.1966C29.5616 4.3223 29.6325 4.49273 29.6327 4.67049V4.8141C29.6325 4.99186 29.5616 5.16229 29.4355 5.28799C29.3093 5.41369 29.1383 5.48439 28.96 5.48459Z" fill="#CCCCCC"/>
<path d="M30.7781 10.7524H23.3599C23.3096 10.7525 23.2597 10.7427 23.2132 10.7235C23.1667 10.7044 23.1245 10.6763 23.0889 10.6408C23.0533 10.6054 23.025 10.5633 23.0058 10.517C22.9865 10.4706 22.9766 10.421 22.9766 10.3708C22.9766 10.3207 22.9865 10.271 23.0058 10.2247C23.025 10.1784 23.0533 10.1363 23.0889 10.1009C23.1245 10.0654 23.1667 10.0373 23.2132 10.0182C23.2597 9.99902 23.3096 9.9892 23.3599 9.98926H30.7781C30.8284 9.9892 30.8782 9.99902 30.9247 10.0182C30.9712 10.0373 31.0135 10.0654 31.0491 10.1009C31.0847 10.1363 31.1129 10.1784 31.1322 10.2247C31.1515 10.271 31.1614 10.3207 31.1614 10.3708C31.1614 10.421 31.1515 10.4706 31.1322 10.517C31.1129 10.5633 31.0847 10.6054 31.0491 10.6408C31.0135 10.6763 30.9712 10.7044 30.9247 10.7235C30.8782 10.7427 30.8284 10.7525 30.7781 10.7524Z" fill="#035D63"/>
<path d="M30.7776 12.3735H23.3594C23.3092 12.3735 23.2594 12.3637 23.2129 12.3445C23.1665 12.3253 23.1243 12.2972 23.0887 12.2618C23.0532 12.2263 23.0249 12.1843 23.0057 12.138C22.9865 12.0917 22.9766 12.042 22.9766 11.9919C22.9766 11.9418 22.9865 11.8922 23.0057 11.8459C23.0249 11.7996 23.0532 11.7575 23.0887 11.7221C23.1243 11.6867 23.1665 11.6586 23.2129 11.6394C23.2594 11.6202 23.3092 11.6104 23.3594 11.6104H30.7776C30.8279 11.6104 30.8777 11.6202 30.9241 11.6394C30.9706 11.6586 31.0128 11.6867 31.0483 11.7221C31.0839 11.7575 31.1121 11.7996 31.1313 11.8459C31.1506 11.8922 31.1605 11.9418 31.1605 11.9919C31.1605 12.042 31.1506 12.0917 31.1313 12.138C31.1121 12.1843 31.0839 12.2263 31.0483 12.2618C31.0128 12.2972 30.9706 12.3253 30.9241 12.3445C30.8777 12.3637 30.8279 12.3735 30.7776 12.3735Z" fill="#035D63"/>
<path d="M28.7921 9.13036H25.3462C25.2959 9.13042 25.2461 9.12059 25.1996 9.10144C25.1531 9.08229 25.1108 9.05419 25.0752 9.01875C25.0396 8.98331 25.0113 8.94123 24.9921 8.8949C24.9728 8.84858 24.9629 8.79892 24.9629 8.74877C24.9629 8.69862 24.9728 8.64897 24.9921 8.60264C25.0113 8.55632 25.0396 8.51423 25.0752 8.47879C25.1108 8.44335 25.1531 8.41525 25.1996 8.3961C25.2461 8.37695 25.2959 8.36713 25.3462 8.36719H28.7921C28.8936 8.36719 28.991 8.40739 29.0628 8.47895C29.1346 8.55051 29.175 8.64757 29.175 8.74877C29.175 8.84998 29.1346 8.94703 29.0628 9.01859C28.991 9.09015 28.8936 9.13036 28.7921 9.13036Z" fill="#035D63"/>
<path d="M47.6151 32.3667L40.5131 36.2241C40.3166 36.3306 40.0858 36.355 39.8713 36.292C39.6568 36.2291 39.4761 36.0838 39.3688 35.8883L34.7197 27.3862C34.6129 27.1903 34.5884 26.9603 34.6516 26.7465C34.7148 26.5327 34.8605 26.3526 35.0567 26.2457L42.1587 22.3883C42.3552 22.2819 42.586 22.2575 42.8005 22.3204C43.0151 22.3834 43.1958 22.5286 43.303 22.7242L47.9521 31.2263C48.0589 31.4221 48.0834 31.6521 48.0202 31.8659C47.957 32.0797 47.8113 32.2598 47.6151 32.3667ZM35.1082 26.3399C34.937 26.4332 34.8099 26.5903 34.7548 26.7768C34.6997 26.9633 34.721 27.164 34.8142 27.3348L39.4633 35.8369C39.5569 36.0076 39.7145 36.1342 39.9017 36.1892C40.0888 36.2441 40.2902 36.2228 40.4616 36.1299L47.5636 32.2725C47.7348 32.1793 47.8619 32.0222 47.917 31.8357C47.9721 31.6491 47.9508 31.4484 47.8576 31.2776L43.2085 22.7755C43.1149 22.6049 42.9573 22.4782 42.7701 22.4233C42.583 22.3683 42.3816 22.3896 42.2102 22.4825L35.1082 26.3399Z" fill="#3F3D56"/>
<path d="M40.6493 24.1146L37.329 25.918C37.1723 26.0029 36.9882 26.0223 36.8171 25.9721C36.646 25.9219 36.5019 25.8061 36.4163 25.6501L36.3474 25.524C36.2622 25.3678 36.2427 25.1843 36.2931 25.0138C36.3435 24.8433 36.4597 24.6996 36.6162 24.6144L39.9365 22.811C40.0932 22.7261 40.2773 22.7066 40.4484 22.7568C40.6195 22.8071 40.7636 22.9229 40.8491 23.0789L40.9181 23.205C41.0033 23.3611 41.0228 23.5446 40.9724 23.7152C40.922 23.8857 40.8058 24.0293 40.6493 24.1146Z" fill="#CCCCCC"/>
<path d="M44.7751 27.8729L38.2614 31.4108C38.2173 31.4348 38.1688 31.4498 38.1188 31.4551C38.0688 31.4605 38.0182 31.4559 37.97 31.4418C37.9218 31.4276 37.8768 31.4041 37.8377 31.3726C37.7986 31.3412 37.7661 31.3023 37.742 31.2583C37.7179 31.2143 37.7028 31.166 37.6975 31.1162C37.6921 31.0664 37.6967 31.016 37.7109 30.9679C37.7251 30.9198 37.7487 30.875 37.7803 30.836C37.8118 30.797 37.8508 30.7646 37.895 30.7407L44.4086 27.2028C44.4978 27.1543 44.6026 27.1432 44.7 27.1718C44.7974 27.2004 44.8795 27.2664 44.9281 27.3552C44.9766 27.4441 44.9878 27.5486 44.9591 27.6456C44.9304 27.7427 44.8642 27.8245 44.7751 27.8729Z" fill="#035D63"/>
<path d="M45.5544 29.2967L39.0407 32.8346C38.9966 32.8586 38.9481 32.8737 38.8981 32.879C38.8481 32.8843 38.7975 32.8797 38.7493 32.8656C38.7011 32.8514 38.6561 32.8279 38.617 32.7965C38.5779 32.765 38.5454 32.7261 38.5213 32.6821C38.4972 32.6381 38.4821 32.5899 38.4768 32.54C38.4714 32.4902 38.476 32.4398 38.4902 32.3917C38.5044 32.3437 38.528 32.2989 38.5596 32.2599C38.5911 32.2209 38.6301 32.1885 38.6743 32.1645L45.1879 28.6266C45.2321 28.6026 45.2805 28.5875 45.3305 28.5822C45.3805 28.5769 45.4311 28.5815 45.4793 28.5956C45.5276 28.6098 45.5725 28.6333 45.6116 28.6647C45.6508 28.6962 45.6833 28.7351 45.7073 28.7791C45.7314 28.8231 45.7465 28.8714 45.7519 28.9212C45.7572 28.971 45.7526 29.0214 45.7384 29.0695C45.7242 29.1175 45.7007 29.1623 45.6691 29.2013C45.6375 29.2403 45.5985 29.2727 45.5544 29.2967Z" fill="#035D63"/>
<path d="M42.252 27.3954L39.2262 29.0388C39.1821 29.0627 39.1336 29.0778 39.0836 29.0831C39.0336 29.0884 38.9831 29.0839 38.9349 29.0697C38.8866 29.0556 38.8417 29.0321 38.8025 29.0006C38.7634 28.9691 38.7309 28.9303 38.7068 28.8863C38.6828 28.8423 38.6677 28.794 38.6623 28.7442C38.657 28.6944 38.6615 28.644 38.6758 28.5959C38.69 28.5478 38.7135 28.503 38.7451 28.464C38.7767 28.425 38.8157 28.3926 38.8598 28.3686L41.8855 26.7252C41.9297 26.7013 41.9781 26.6862 42.0281 26.6809C42.0781 26.6755 42.1287 26.6801 42.1769 26.6943C42.2251 26.7084 42.2701 26.7319 42.3092 26.7634C42.3483 26.7948 42.3809 26.8337 42.4049 26.8777C42.429 26.9217 42.4441 26.97 42.4494 27.0198C42.4548 27.0696 42.4502 27.12 42.436 27.1681C42.4218 27.2162 42.3982 27.261 42.3667 27.3C42.3351 27.339 42.2961 27.3714 42.252 27.3954Z" fill="#035D63"/>
<path d="M20.0271 12.769L16.2441 14.958L16.2982 15.0508L20.0811 12.8618L20.0271 12.769Z" fill="#3F3D56"/>
<path d="M20.1875 13.3565L20.7218 12.4287L19.6484 12.4312L20.1875 13.3565Z" fill="#3F3D56"/>
<path d="M31.2241 27.1691C31.2156 27.1691 31.2071 27.1671 31.1995 27.1632L16.66 19.7195C16.6473 19.713 16.6378 19.7017 16.6334 19.6882C16.6291 19.6746 16.6303 19.6599 16.6368 19.6473C16.6433 19.6347 16.6546 19.6251 16.6682 19.6208C16.6817 19.6164 16.6965 19.6176 16.7092 19.624L31.2487 27.0677C31.2595 27.0732 31.2681 27.0822 31.2731 27.0931C31.2781 27.104 31.2793 27.1164 31.2764 27.1281C31.2736 27.1398 31.2669 27.1502 31.2574 27.1576C31.2479 27.165 31.2362 27.1691 31.2241 27.1691Z" fill="#3F3D56"/>
<path d="M30.8379 27.52L31.9099 27.4675L31.3284 26.5684L30.8379 27.52Z" fill="#3F3D56"/>
<path d="M46.225 33.324C46.1494 33.2865 46.0829 33.2329 46.0302 33.167C45.9776 33.101 45.9401 33.0244 45.9204 32.9425C45.9007 32.8606 45.8992 32.7754 45.9161 32.6928C45.9331 32.6103 45.9679 32.5325 46.0183 32.4648L45.5859 28.252H46.5203L46.8639 32.3656C46.9723 32.4574 47.0431 32.5857 47.063 32.7262C47.0829 32.8666 47.0503 33.0094 46.9716 33.1276C46.8928 33.2457 46.7734 33.331 46.6358 33.3672C46.4982 33.4034 46.352 33.388 46.225 33.324V33.324Z" fill="#A0616A"/>
<path d="M45.3668 25.9269C46.0969 25.9269 46.6887 25.337 46.6887 24.6094C46.6887 23.8818 46.0969 23.292 45.3668 23.292C44.6368 23.292 44.0449 23.8818 44.0449 24.6094C44.0449 25.337 44.6368 25.9269 45.3668 25.9269Z" fill="#A0616A"/>
<path d="M45.0661 30.6994L43.0932 30.27C43.0414 30.2586 42.9947 30.2306 42.9604 30.1902C42.926 30.1499 42.9059 30.0994 42.9031 30.0466C42.8803 29.6078 42.8639 28.4728 43.203 27.4132C43.2685 27.2101 43.3742 27.0221 43.5139 26.8603C43.6536 26.6986 43.8244 26.5665 44.0162 26.4717C44.208 26.3769 44.417 26.3215 44.6307 26.3086C44.8444 26.2957 45.0585 26.3257 45.2604 26.3967C45.4734 26.4713 45.6682 26.59 45.832 26.7449C45.9958 26.8998 46.1249 27.0875 46.2108 27.2956C46.2967 27.5037 46.3374 27.7276 46.3304 27.9525C46.3234 28.1775 46.2687 28.3984 46.17 28.6008C45.7325 29.4961 45.457 30.1445 45.3511 30.528C45.3346 30.5875 45.2959 30.6384 45.2429 30.6703C45.1899 30.7022 45.1266 30.7126 45.0661 30.6994Z" fill="#058B94"/>
<path d="M43.2207 41.8068L42.2049 41.7288C42.148 41.7246 42.0945 41.7005 42.0538 41.6607C42.0131 41.621 41.9878 41.5682 41.9824 41.5116C41.8376 40.0067 41.2025 32.3807 42.9203 30.0328L42.9251 30.0262L42.9328 30.0234C42.9482 30.0178 44.4801 29.4733 45.3591 30.4711C45.3867 30.5028 45.4055 30.5411 45.4137 30.5823C45.4219 30.6235 45.4191 30.6661 45.4057 30.7059L45.3722 30.8061C45.3626 30.8345 45.36 30.8648 45.3647 30.8945C45.3693 30.9241 45.3811 30.9522 45.3989 30.9763C45.6428 31.305 46.4638 32.5707 46.7865 35.0598C46.7885 35.0756 46.7926 35.0912 46.7986 35.106L49.1809 40.9386C49.1931 40.9684 49.1992 41.0003 49.1988 41.0324C49.1984 41.0646 49.1916 41.0963 49.1787 41.1258C49.1659 41.1553 49.1472 41.1819 49.1239 41.2041C49.1005 41.2264 49.073 41.2437 49.0428 41.2551L48.2932 41.5398C48.2386 41.5602 48.1785 41.5604 48.1238 41.5404C48.069 41.5204 48.0233 41.4814 47.9949 41.4307L44.5559 35.2122C44.5422 35.1875 44.521 35.1677 44.4953 35.1556C44.4696 35.1436 44.4408 35.1399 44.413 35.1452C44.3851 35.1505 44.3596 35.1644 44.3401 35.185C44.3207 35.2055 44.3082 35.2317 44.3046 35.2597L43.4794 41.5971C43.4718 41.6553 43.4433 41.7086 43.3992 41.7473C43.355 41.786 43.2983 41.8074 43.2395 41.8075C43.2332 41.8075 43.227 41.8072 43.2207 41.8068Z" fill="#035D63"/>
<path d="M40.2283 26.1396C40.2349 26.1685 40.2392 26.1979 40.2412 26.2275L42.5531 27.5568L43.1151 27.2344L43.7142 28.0161L42.775 28.6832C42.6991 28.7371 42.6078 28.765 42.5146 28.7627C42.4215 28.7605 42.3316 28.7282 42.2584 28.6707L39.8744 26.7962C39.7668 26.8359 39.6496 26.842 39.5384 26.8137C39.4273 26.7854 39.3274 26.724 39.2521 26.6378C39.1768 26.5515 39.1296 26.4445 39.1168 26.3309C39.104 26.2172 39.1263 26.1024 39.1805 26.0017C39.2348 25.901 39.3186 25.8191 39.4207 25.767C39.5228 25.7149 39.6385 25.695 39.7522 25.7099C39.8659 25.7249 39.9724 25.774 40.0575 25.8508C40.1425 25.9275 40.2021 26.0282 40.2283 26.1396V26.1396Z" fill="#A0616A"/>
<path d="M42.585 27.4244C42.592 27.3904 42.6062 27.3583 42.6267 27.3303C42.6473 27.3023 42.6736 27.2791 42.704 27.2622L43.765 26.6709C43.906 26.5625 44.0843 26.5142 44.2609 26.5366C44.4376 26.5591 44.5981 26.6504 44.7072 26.7905C44.8164 26.9307 44.8654 27.1083 44.8434 27.2844C44.8214 27.4605 44.7302 27.6208 44.5899 27.73L43.744 28.6054C43.7198 28.6304 43.6906 28.6499 43.6582 28.6626C43.6258 28.6753 43.591 28.6809 43.5563 28.679C43.5215 28.6771 43.4876 28.6678 43.4568 28.6516C43.426 28.6355 43.399 28.6129 43.3778 28.5854L42.6305 27.6203C42.6093 27.5928 42.5942 27.5611 42.5863 27.5273C42.5785 27.4935 42.578 27.4584 42.585 27.4244Z" fill="#058B94"/>
<path d="M45.3319 29.2468C45.3048 29.225 45.2828 29.1977 45.2673 29.1666C45.2518 29.1355 45.2432 29.1015 45.2422 29.0668L45.2041 27.856C45.1724 27.6813 45.2115 27.5013 45.3128 27.3554C45.4141 27.2094 45.5694 27.1095 45.7445 27.0774C45.9197 27.0454 46.1004 27.0839 46.2471 27.1844C46.3938 27.285 46.4946 27.4394 46.5272 27.6139L46.9174 28.7654C46.9286 28.7982 46.9325 28.8331 46.9289 28.8676C46.9252 28.9021 46.9142 28.9354 46.8965 28.9653C46.8788 28.9952 46.8549 29.0209 46.8263 29.0407C46.7978 29.0605 46.7653 29.074 46.731 29.0801L45.5273 29.2967C45.493 29.3029 45.4578 29.3017 45.4241 29.2931C45.3904 29.2844 45.3589 29.2687 45.3319 29.2468Z" fill="#6C63FF"/>
<path d="M45.1586 24.3062C44.8188 24.538 44.3727 24.7762 44.0257 24.5294C43.7979 24.3673 43.7261 24.0673 43.8185 23.8039C43.9846 23.3304 44.4412 23.1219 44.8777 22.9621C45.4452 22.7543 46.0631 22.5891 46.649 22.7378C47.2348 22.8866 47.7526 23.4519 47.6469 24.0452C47.5618 24.5223 47.1103 24.9192 47.1744 25.3996C47.2389 25.883 47.7844 26.1374 48.2659 26.2238C48.7475 26.3102 49.2864 26.338 49.6325 26.6827C50.074 27.1225 49.9637 27.9086 49.5483 28.3729C49.1329 28.8372 48.506 29.0477 47.8985 29.1907C47.0936 29.3803 46.2231 29.4799 45.4587 29.1653C44.6943 28.8507 44.0994 28.0038 44.3208 27.2096C44.4144 26.8742 44.6347 26.5907 44.8477 26.3147C45.0606 26.0387 45.2763 25.7501 45.3575 25.4115C45.4252 25.1293 45.3751 24.8017 45.1873 24.59C45.1532 24.5529 45.1317 24.5061 45.1259 24.4561C45.1202 24.4061 45.1305 24.3556 45.1553 24.3118L45.1586 24.3062Z" fill="#2F2E41"/>
</g>
</g>
<defs>
<clipPath id="clip0_15303_9891">
<rect width="50" height="39.8936" rx="4" fill="white"/>
</clipPath>
<clipPath id="clip1_15303_9891">
<rect width="50" height="39.881" fill="white" transform="translate(5 4)"/>
</clipPath>
</defs>
</svg>
